<mxfile host="app.diagrams.net" modified="2023-10-12T18:48:40.335Z" agent="Mozilla/5.0 (Windows NT 10.0; Win64; x64) AppleWebKit/537.36 (KHTML, like Gecko) Chrome/116.0.5845.967 YaBrowser/23.9.1.967 Yowser/2.5 Safari/537.36" etag="YOvLI4XlY0prWHwH-7KR" version="22.0.4" type="device">
  <diagram name="Страница — 1" id="Y6GEWcHp9kSYobXCl7wp">
    <mxGraphModel dx="3154" dy="1223" grid="0" gridSize="10" guides="1" tooltips="1" connect="1" arrows="1" fold="1" page="0" pageScale="1" pageWidth="827" pageHeight="1169" math="0" shadow="0">
      <root>
        <mxCell id="0" />
        <mxCell id="1" parent="0" />
        <mxCell id="WTXbPh3IcF4Nutv3do0K-14" value="Post" style="shape=table;startSize=30;container=1;collapsible=1;childLayout=tableLayout;fixedRows=1;rowLines=0;fontStyle=1;align=center;resizeLast=1;html=1;fontSize=16;" vertex="1" parent="1">
          <mxGeometry x="-1" y="274" width="180" height="120" as="geometry" />
        </mxCell>
        <mxCell id="WTXbPh3IcF4Nutv3do0K-15" value="" style="shape=tableRow;horizontal=0;startSize=0;swimlaneHead=0;swimlaneBody=0;fillColor=none;collapsible=0;dropTarget=0;points=[[0,0.5],[1,0.5]];portConstraint=eastwest;top=0;left=0;right=0;bottom=1;fontSize=16;" vertex="1" parent="WTXbPh3IcF4Nutv3do0K-14">
          <mxGeometry y="30" width="180" height="30" as="geometry" />
        </mxCell>
        <mxCell id="WTXbPh3IcF4Nutv3do0K-16" value="PK" style="shape=partialRectangle;connectable=0;fillColor=none;top=0;left=0;bottom=0;right=0;fontStyle=1;overflow=hidden;whiteSpace=wrap;html=1;fontSize=16;" vertex="1" parent="WTXbPh3IcF4Nutv3do0K-15">
          <mxGeometry width="30" height="30" as="geometry">
            <mxRectangle width="30" height="30" as="alternateBounds" />
          </mxGeometry>
        </mxCell>
        <mxCell id="WTXbPh3IcF4Nutv3do0K-17" value="id int" style="shape=partialRectangle;connectable=0;fillColor=none;top=0;left=0;bottom=0;right=0;align=left;spacingLeft=6;fontStyle=5;overflow=hidden;whiteSpace=wrap;html=1;fontSize=16;" vertex="1" parent="WTXbPh3IcF4Nutv3do0K-15">
          <mxGeometry x="30" width="150" height="30" as="geometry">
            <mxRectangle width="150" height="30" as="alternateBounds" />
          </mxGeometry>
        </mxCell>
        <mxCell id="WTXbPh3IcF4Nutv3do0K-18" value="" style="shape=tableRow;horizontal=0;startSize=0;swimlaneHead=0;swimlaneBody=0;fillColor=none;collapsible=0;dropTarget=0;points=[[0,0.5],[1,0.5]];portConstraint=eastwest;top=0;left=0;right=0;bottom=0;fontSize=16;" vertex="1" parent="WTXbPh3IcF4Nutv3do0K-14">
          <mxGeometry y="60" width="180" height="30" as="geometry" />
        </mxCell>
        <mxCell id="WTXbPh3IcF4Nutv3do0K-19" value="" style="shape=partialRectangle;connectable=0;fillColor=none;top=0;left=0;bottom=0;right=0;editable=1;overflow=hidden;whiteSpace=wrap;html=1;fontSize=16;" vertex="1" parent="WTXbPh3IcF4Nutv3do0K-18">
          <mxGeometry width="30" height="30" as="geometry">
            <mxRectangle width="30" height="30" as="alternateBounds" />
          </mxGeometry>
        </mxCell>
        <mxCell id="WTXbPh3IcF4Nutv3do0K-20" value="post str" style="shape=partialRectangle;connectable=0;fillColor=none;top=0;left=0;bottom=0;right=0;align=left;spacingLeft=6;overflow=hidden;whiteSpace=wrap;html=1;fontSize=16;" vertex="1" parent="WTXbPh3IcF4Nutv3do0K-18">
          <mxGeometry x="30" width="150" height="30" as="geometry">
            <mxRectangle width="150" height="30" as="alternateBounds" />
          </mxGeometry>
        </mxCell>
        <mxCell id="WTXbPh3IcF4Nutv3do0K-21" value="" style="shape=tableRow;horizontal=0;startSize=0;swimlaneHead=0;swimlaneBody=0;fillColor=none;collapsible=0;dropTarget=0;points=[[0,0.5],[1,0.5]];portConstraint=eastwest;top=0;left=0;right=0;bottom=0;fontSize=16;" vertex="1" parent="WTXbPh3IcF4Nutv3do0K-14">
          <mxGeometry y="90" width="180" height="30" as="geometry" />
        </mxCell>
        <mxCell id="WTXbPh3IcF4Nutv3do0K-22" value="" style="shape=partialRectangle;connectable=0;fillColor=none;top=0;left=0;bottom=0;right=0;editable=1;overflow=hidden;whiteSpace=wrap;html=1;fontSize=16;" vertex="1" parent="WTXbPh3IcF4Nutv3do0K-21">
          <mxGeometry width="30" height="30" as="geometry">
            <mxRectangle width="30" height="30" as="alternateBounds" />
          </mxGeometry>
        </mxCell>
        <mxCell id="WTXbPh3IcF4Nutv3do0K-23" value="salaryPerHour" style="shape=partialRectangle;connectable=0;fillColor=none;top=0;left=0;bottom=0;right=0;align=left;spacingLeft=6;overflow=hidden;whiteSpace=wrap;html=1;fontSize=16;" vertex="1" parent="WTXbPh3IcF4Nutv3do0K-21">
          <mxGeometry x="30" width="150" height="30" as="geometry">
            <mxRectangle width="150" height="30" as="alternateBounds" />
          </mxGeometry>
        </mxCell>
        <mxCell id="WTXbPh3IcF4Nutv3do0K-31" value="Program" style="shape=table;startSize=30;container=1;collapsible=1;childLayout=tableLayout;fixedRows=1;rowLines=0;fontStyle=1;align=center;resizeLast=1;html=1;fontSize=16;" vertex="1" parent="1">
          <mxGeometry x="-774" y="231" width="259.7592592592591" height="373.8110465834256" as="geometry" />
        </mxCell>
        <mxCell id="WTXbPh3IcF4Nutv3do0K-32" value="" style="shape=tableRow;horizontal=0;startSize=0;swimlaneHead=0;swimlaneBody=0;fillColor=none;collapsible=0;dropTarget=0;points=[[0,0.5],[1,0.5]];portConstraint=eastwest;top=0;left=0;right=0;bottom=1;fontSize=16;" vertex="1" parent="WTXbPh3IcF4Nutv3do0K-31">
          <mxGeometry y="30" width="259.7592592592591" height="30" as="geometry" />
        </mxCell>
        <mxCell id="WTXbPh3IcF4Nutv3do0K-33" value="PK" style="shape=partialRectangle;connectable=0;fillColor=none;top=0;left=0;bottom=0;right=0;fontStyle=1;overflow=hidden;whiteSpace=wrap;html=1;fontSize=16;" vertex="1" parent="WTXbPh3IcF4Nutv3do0K-32">
          <mxGeometry width="30" height="30" as="geometry">
            <mxRectangle width="30" height="30" as="alternateBounds" />
          </mxGeometry>
        </mxCell>
        <mxCell id="WTXbPh3IcF4Nutv3do0K-34" value="id Int" style="shape=partialRectangle;connectable=0;fillColor=none;top=0;left=0;bottom=0;right=0;align=left;spacingLeft=6;fontStyle=5;overflow=hidden;whiteSpace=wrap;html=1;fontSize=16;" vertex="1" parent="WTXbPh3IcF4Nutv3do0K-32">
          <mxGeometry x="30" width="229.75925925925912" height="30" as="geometry">
            <mxRectangle width="229.75925925925912" height="30" as="alternateBounds" />
          </mxGeometry>
        </mxCell>
        <mxCell id="WTXbPh3IcF4Nutv3do0K-38" value="" style="shape=tableRow;horizontal=0;startSize=0;swimlaneHead=0;swimlaneBody=0;fillColor=none;collapsible=0;dropTarget=0;points=[[0,0.5],[1,0.5]];portConstraint=eastwest;top=0;left=0;right=0;bottom=0;fontSize=16;" vertex="1" parent="WTXbPh3IcF4Nutv3do0K-31">
          <mxGeometry y="60" width="259.7592592592591" height="63" as="geometry" />
        </mxCell>
        <mxCell id="WTXbPh3IcF4Nutv3do0K-39" value="" style="shape=partialRectangle;connectable=0;fillColor=none;top=0;left=0;bottom=0;right=0;editable=1;overflow=hidden;whiteSpace=wrap;html=1;fontSize=16;" vertex="1" parent="WTXbPh3IcF4Nutv3do0K-38">
          <mxGeometry width="30" height="63" as="geometry">
            <mxRectangle width="30" height="63" as="alternateBounds" />
          </mxGeometry>
        </mxCell>
        <mxCell id="WTXbPh3IcF4Nutv3do0K-40" value="name str" style="shape=partialRectangle;connectable=0;fillColor=none;top=0;left=0;bottom=0;right=0;align=left;spacingLeft=6;overflow=hidden;whiteSpace=wrap;html=1;fontSize=16;" vertex="1" parent="WTXbPh3IcF4Nutv3do0K-38">
          <mxGeometry x="30" width="229.75925925925912" height="63" as="geometry">
            <mxRectangle width="229.75925925925912" height="63" as="alternateBounds" />
          </mxGeometry>
        </mxCell>
        <mxCell id="WTXbPh3IcF4Nutv3do0K-41" value="" style="shape=tableRow;horizontal=0;startSize=0;swimlaneHead=0;swimlaneBody=0;fillColor=none;collapsible=0;dropTarget=0;points=[[0,0.5],[1,0.5]];portConstraint=eastwest;top=0;left=0;right=0;bottom=0;fontSize=16;" vertex="1" parent="WTXbPh3IcF4Nutv3do0K-31">
          <mxGeometry y="123" width="259.7592592592591" height="26" as="geometry" />
        </mxCell>
        <mxCell id="WTXbPh3IcF4Nutv3do0K-42" value="" style="shape=partialRectangle;connectable=0;fillColor=none;top=0;left=0;bottom=0;right=0;editable=1;overflow=hidden;whiteSpace=wrap;html=1;fontSize=16;" vertex="1" parent="WTXbPh3IcF4Nutv3do0K-41">
          <mxGeometry width="30" height="26" as="geometry">
            <mxRectangle width="30" height="26" as="alternateBounds" />
          </mxGeometry>
        </mxCell>
        <mxCell id="WTXbPh3IcF4Nutv3do0K-43" value="employee str" style="shape=partialRectangle;connectable=0;fillColor=none;top=0;left=0;bottom=0;right=0;align=left;spacingLeft=6;overflow=hidden;whiteSpace=wrap;html=1;fontSize=16;" vertex="1" parent="WTXbPh3IcF4Nutv3do0K-41">
          <mxGeometry x="30" width="229.75925925925912" height="26" as="geometry">
            <mxRectangle width="229.75925925925912" height="26" as="alternateBounds" />
          </mxGeometry>
        </mxCell>
        <mxCell id="WTXbPh3IcF4Nutv3do0K-120" value="" style="shape=tableRow;horizontal=0;startSize=0;swimlaneHead=0;swimlaneBody=0;fillColor=none;collapsible=0;dropTarget=0;points=[[0,0.5],[1,0.5]];portConstraint=eastwest;top=0;left=0;right=0;bottom=0;fontSize=16;" vertex="1" parent="WTXbPh3IcF4Nutv3do0K-31">
          <mxGeometry y="149" width="259.7592592592591" height="43" as="geometry" />
        </mxCell>
        <mxCell id="WTXbPh3IcF4Nutv3do0K-121" value="" style="shape=partialRectangle;connectable=0;fillColor=none;top=0;left=0;bottom=0;right=0;editable=1;overflow=hidden;whiteSpace=wrap;html=1;fontSize=16;" vertex="1" parent="WTXbPh3IcF4Nutv3do0K-120">
          <mxGeometry width="30" height="43" as="geometry">
            <mxRectangle width="30" height="43" as="alternateBounds" />
          </mxGeometry>
        </mxCell>
        <mxCell id="WTXbPh3IcF4Nutv3do0K-122" value="Employee [int]" style="shape=partialRectangle;connectable=0;fillColor=none;top=0;left=0;bottom=0;right=0;align=left;spacingLeft=6;overflow=hidden;whiteSpace=wrap;html=1;fontSize=16;" vertex="1" parent="WTXbPh3IcF4Nutv3do0K-120">
          <mxGeometry x="30" width="229.75925925925912" height="43" as="geometry">
            <mxRectangle width="229.75925925925912" height="43" as="alternateBounds" />
          </mxGeometry>
        </mxCell>
        <mxCell id="WTXbPh3IcF4Nutv3do0K-126" value="" style="shape=tableRow;horizontal=0;startSize=0;swimlaneHead=0;swimlaneBody=0;fillColor=none;collapsible=0;dropTarget=0;points=[[0,0.5],[1,0.5]];portConstraint=eastwest;top=0;left=0;right=0;bottom=0;fontSize=16;" vertex="1" parent="WTXbPh3IcF4Nutv3do0K-31">
          <mxGeometry y="192" width="259.7592592592591" height="41" as="geometry" />
        </mxCell>
        <mxCell id="WTXbPh3IcF4Nutv3do0K-127" value="" style="shape=partialRectangle;connectable=0;fillColor=none;top=0;left=0;bottom=0;right=0;editable=1;overflow=hidden;whiteSpace=wrap;html=1;fontSize=16;" vertex="1" parent="WTXbPh3IcF4Nutv3do0K-126">
          <mxGeometry width="30" height="41" as="geometry">
            <mxRectangle width="30" height="41" as="alternateBounds" />
          </mxGeometry>
        </mxCell>
        <mxCell id="WTXbPh3IcF4Nutv3do0K-128" value="description str" style="shape=partialRectangle;connectable=0;fillColor=none;top=0;left=0;bottom=0;right=0;align=left;spacingLeft=6;overflow=hidden;whiteSpace=wrap;html=1;fontSize=16;" vertex="1" parent="WTXbPh3IcF4Nutv3do0K-126">
          <mxGeometry x="30" width="229.75925925925912" height="41" as="geometry">
            <mxRectangle width="229.75925925925912" height="41" as="alternateBounds" />
          </mxGeometry>
        </mxCell>
        <mxCell id="WTXbPh3IcF4Nutv3do0K-294" value="" style="shape=tableRow;horizontal=0;startSize=0;swimlaneHead=0;swimlaneBody=0;fillColor=none;collapsible=0;dropTarget=0;points=[[0,0.5],[1,0.5]];portConstraint=eastwest;top=0;left=0;right=0;bottom=0;fontSize=16;" vertex="1" parent="WTXbPh3IcF4Nutv3do0K-31">
          <mxGeometry y="233" width="259.7592592592591" height="32" as="geometry" />
        </mxCell>
        <mxCell id="WTXbPh3IcF4Nutv3do0K-295" value="" style="shape=partialRectangle;connectable=0;fillColor=none;top=0;left=0;bottom=0;right=0;editable=1;overflow=hidden;whiteSpace=wrap;html=1;fontSize=16;" vertex="1" parent="WTXbPh3IcF4Nutv3do0K-294">
          <mxGeometry width="30" height="32" as="geometry">
            <mxRectangle width="30" height="32" as="alternateBounds" />
          </mxGeometry>
        </mxCell>
        <mxCell id="WTXbPh3IcF4Nutv3do0K-296" value="Sound [int]" style="shape=partialRectangle;connectable=0;fillColor=none;top=0;left=0;bottom=0;right=0;align=left;spacingLeft=6;overflow=hidden;whiteSpace=wrap;html=1;fontSize=16;" vertex="1" parent="WTXbPh3IcF4Nutv3do0K-294">
          <mxGeometry x="30" width="229.75925925925912" height="32" as="geometry">
            <mxRectangle width="229.75925925925912" height="32" as="alternateBounds" />
          </mxGeometry>
        </mxCell>
        <mxCell id="WTXbPh3IcF4Nutv3do0K-314" value="" style="shape=tableRow;horizontal=0;startSize=0;swimlaneHead=0;swimlaneBody=0;fillColor=none;collapsible=0;dropTarget=0;points=[[0,0.5],[1,0.5]];portConstraint=eastwest;top=0;left=0;right=0;bottom=0;fontSize=16;" vertex="1" parent="WTXbPh3IcF4Nutv3do0K-31">
          <mxGeometry y="265" width="259.7592592592591" height="35" as="geometry" />
        </mxCell>
        <mxCell id="WTXbPh3IcF4Nutv3do0K-315" value="" style="shape=partialRectangle;connectable=0;fillColor=none;top=0;left=0;bottom=0;right=0;editable=1;overflow=hidden;whiteSpace=wrap;html=1;fontSize=16;" vertex="1" parent="WTXbPh3IcF4Nutv3do0K-314">
          <mxGeometry width="30" height="35" as="geometry">
            <mxRectangle width="30" height="35" as="alternateBounds" />
          </mxGeometry>
        </mxCell>
        <mxCell id="WTXbPh3IcF4Nutv3do0K-316" value="&amp;nbsp;TechnicalSoftwareId int" style="shape=partialRectangle;connectable=0;fillColor=none;top=0;left=0;bottom=0;right=0;align=left;spacingLeft=6;overflow=hidden;whiteSpace=wrap;html=1;fontSize=16;" vertex="1" parent="WTXbPh3IcF4Nutv3do0K-314">
          <mxGeometry x="30" width="229.75925925925912" height="35" as="geometry">
            <mxRectangle width="229.75925925925912" height="35" as="alternateBounds" />
          </mxGeometry>
        </mxCell>
        <mxCell id="WTXbPh3IcF4Nutv3do0K-129" value="Employees" style="shape=table;startSize=30;container=1;collapsible=1;childLayout=tableLayout;fixedRows=1;rowLines=0;fontStyle=1;align=center;resizeLast=1;html=1;fontSize=16;" vertex="1" parent="1">
          <mxGeometry x="-362" y="274" width="234.54166666666669" height="191" as="geometry" />
        </mxCell>
        <mxCell id="WTXbPh3IcF4Nutv3do0K-130" value="" style="shape=tableRow;horizontal=0;startSize=0;swimlaneHead=0;swimlaneBody=0;fillColor=none;collapsible=0;dropTarget=0;points=[[0,0.5],[1,0.5]];portConstraint=eastwest;top=0;left=0;right=0;bottom=1;fontSize=16;" vertex="1" parent="WTXbPh3IcF4Nutv3do0K-129">
          <mxGeometry y="30" width="234.54166666666669" height="21" as="geometry" />
        </mxCell>
        <mxCell id="WTXbPh3IcF4Nutv3do0K-131" value="PK" style="shape=partialRectangle;connectable=0;fillColor=none;top=0;left=0;bottom=0;right=0;fontStyle=1;overflow=hidden;whiteSpace=wrap;html=1;fontSize=16;" vertex="1" parent="WTXbPh3IcF4Nutv3do0K-130">
          <mxGeometry width="30" height="21" as="geometry">
            <mxRectangle width="30" height="21" as="alternateBounds" />
          </mxGeometry>
        </mxCell>
        <mxCell id="WTXbPh3IcF4Nutv3do0K-132" value="id Int" style="shape=partialRectangle;connectable=0;fillColor=none;top=0;left=0;bottom=0;right=0;align=left;spacingLeft=6;fontStyle=5;overflow=hidden;whiteSpace=wrap;html=1;fontSize=16;" vertex="1" parent="WTXbPh3IcF4Nutv3do0K-130">
          <mxGeometry x="30" width="204.54166666666669" height="21" as="geometry">
            <mxRectangle width="204.54166666666669" height="21" as="alternateBounds" />
          </mxGeometry>
        </mxCell>
        <mxCell id="WTXbPh3IcF4Nutv3do0K-133" value="" style="shape=tableRow;horizontal=0;startSize=0;swimlaneHead=0;swimlaneBody=0;fillColor=none;collapsible=0;dropTarget=0;points=[[0,0.5],[1,0.5]];portConstraint=eastwest;top=0;left=0;right=0;bottom=0;fontSize=16;" vertex="1" parent="WTXbPh3IcF4Nutv3do0K-129">
          <mxGeometry y="51" width="234.54166666666669" height="40" as="geometry" />
        </mxCell>
        <mxCell id="WTXbPh3IcF4Nutv3do0K-134" value="" style="shape=partialRectangle;connectable=0;fillColor=none;top=0;left=0;bottom=0;right=0;editable=1;overflow=hidden;whiteSpace=wrap;html=1;fontSize=16;" vertex="1" parent="WTXbPh3IcF4Nutv3do0K-133">
          <mxGeometry width="30" height="40" as="geometry">
            <mxRectangle width="30" height="40" as="alternateBounds" />
          </mxGeometry>
        </mxCell>
        <mxCell id="WTXbPh3IcF4Nutv3do0K-135" value="name(firstname,lastname&lt;br&gt;) String" style="shape=partialRectangle;connectable=0;fillColor=none;top=0;left=0;bottom=0;right=0;align=left;spacingLeft=6;overflow=hidden;whiteSpace=wrap;html=1;fontSize=16;" vertex="1" parent="WTXbPh3IcF4Nutv3do0K-133">
          <mxGeometry x="30" width="204.54166666666669" height="40" as="geometry">
            <mxRectangle width="204.54166666666669" height="40" as="alternateBounds" />
          </mxGeometry>
        </mxCell>
        <mxCell id="WTXbPh3IcF4Nutv3do0K-8" value="" style="shape=tableRow;horizontal=0;startSize=0;swimlaneHead=0;swimlaneBody=0;fillColor=none;collapsible=0;dropTarget=0;points=[[0,0.5],[1,0.5]];portConstraint=eastwest;top=0;left=0;right=0;bottom=0;fontSize=16;" vertex="1" parent="WTXbPh3IcF4Nutv3do0K-129">
          <mxGeometry y="91" width="234.54166666666669" height="30" as="geometry" />
        </mxCell>
        <mxCell id="WTXbPh3IcF4Nutv3do0K-9" value="" style="shape=partialRectangle;connectable=0;fillColor=none;top=0;left=0;bottom=0;right=0;editable=1;overflow=hidden;whiteSpace=wrap;html=1;fontSize=16;" vertex="1" parent="WTXbPh3IcF4Nutv3do0K-8">
          <mxGeometry width="30" height="30" as="geometry">
            <mxRectangle width="30" height="30" as="alternateBounds" />
          </mxGeometry>
        </mxCell>
        <mxCell id="WTXbPh3IcF4Nutv3do0K-10" value="post str" style="shape=partialRectangle;connectable=0;fillColor=none;top=0;left=0;bottom=0;right=0;align=left;spacingLeft=6;overflow=hidden;whiteSpace=wrap;html=1;fontSize=16;" vertex="1" parent="WTXbPh3IcF4Nutv3do0K-8">
          <mxGeometry x="30" width="204.54166666666669" height="30" as="geometry">
            <mxRectangle width="204.54166666666669" height="30" as="alternateBounds" />
          </mxGeometry>
        </mxCell>
        <mxCell id="WTXbPh3IcF4Nutv3do0K-11" value="" style="shape=tableRow;horizontal=0;startSize=0;swimlaneHead=0;swimlaneBody=0;fillColor=none;collapsible=0;dropTarget=0;points=[[0,0.5],[1,0.5]];portConstraint=eastwest;top=0;left=0;right=0;bottom=0;fontSize=16;" vertex="1" parent="WTXbPh3IcF4Nutv3do0K-129">
          <mxGeometry y="121" width="234.54166666666669" height="35" as="geometry" />
        </mxCell>
        <mxCell id="WTXbPh3IcF4Nutv3do0K-12" value="" style="shape=partialRectangle;connectable=0;fillColor=none;top=0;left=0;bottom=0;right=0;editable=1;overflow=hidden;whiteSpace=wrap;html=1;fontSize=16;" vertex="1" parent="WTXbPh3IcF4Nutv3do0K-11">
          <mxGeometry width="30" height="35" as="geometry">
            <mxRectangle width="30" height="35" as="alternateBounds" />
          </mxGeometry>
        </mxCell>
        <mxCell id="WTXbPh3IcF4Nutv3do0K-13" value="Post [int]" style="shape=partialRectangle;connectable=0;fillColor=none;top=0;left=0;bottom=0;right=0;align=left;spacingLeft=6;overflow=hidden;whiteSpace=wrap;html=1;fontSize=16;" vertex="1" parent="WTXbPh3IcF4Nutv3do0K-11">
          <mxGeometry x="30" width="204.54166666666669" height="35" as="geometry">
            <mxRectangle width="204.54166666666669" height="35" as="alternateBounds" />
          </mxGeometry>
        </mxCell>
        <mxCell id="WTXbPh3IcF4Nutv3do0K-139" value="" style="shape=tableRow;horizontal=0;startSize=0;swimlaneHead=0;swimlaneBody=0;fillColor=none;collapsible=0;dropTarget=0;points=[[0,0.5],[1,0.5]];portConstraint=eastwest;top=0;left=0;right=0;bottom=0;fontSize=16;" vertex="1" parent="WTXbPh3IcF4Nutv3do0K-129">
          <mxGeometry y="156" width="234.54166666666669" height="35" as="geometry" />
        </mxCell>
        <mxCell id="WTXbPh3IcF4Nutv3do0K-140" value="" style="shape=partialRectangle;connectable=0;fillColor=none;top=0;left=0;bottom=0;right=0;editable=1;overflow=hidden;whiteSpace=wrap;html=1;fontSize=16;" vertex="1" parent="WTXbPh3IcF4Nutv3do0K-139">
          <mxGeometry width="30" height="35" as="geometry">
            <mxRectangle width="30" height="35" as="alternateBounds" />
          </mxGeometry>
        </mxCell>
        <mxCell id="WTXbPh3IcF4Nutv3do0K-141" value="postId int" style="shape=partialRectangle;connectable=0;fillColor=none;top=0;left=0;bottom=0;right=0;align=left;spacingLeft=6;overflow=hidden;whiteSpace=wrap;html=1;fontSize=16;" vertex="1" parent="WTXbPh3IcF4Nutv3do0K-139">
          <mxGeometry x="30" width="204.54166666666669" height="35" as="geometry">
            <mxRectangle width="204.54166666666669" height="35" as="alternateBounds" />
          </mxGeometry>
        </mxCell>
        <mxCell id="WTXbPh3IcF4Nutv3do0K-144" value="music and sounds" style="shape=table;startSize=30;container=1;collapsible=1;childLayout=tableLayout;fixedRows=1;rowLines=0;fontStyle=1;align=center;resizeLast=1;html=1;fontSize=16;" vertex="1" parent="1">
          <mxGeometry x="-1174" y="175" width="180" height="150" as="geometry" />
        </mxCell>
        <mxCell id="WTXbPh3IcF4Nutv3do0K-145" value="" style="shape=tableRow;horizontal=0;startSize=0;swimlaneHead=0;swimlaneBody=0;fillColor=none;collapsible=0;dropTarget=0;points=[[0,0.5],[1,0.5]];portConstraint=eastwest;top=0;left=0;right=0;bottom=1;fontSize=16;" vertex="1" parent="WTXbPh3IcF4Nutv3do0K-144">
          <mxGeometry y="30" width="180" height="30" as="geometry" />
        </mxCell>
        <mxCell id="WTXbPh3IcF4Nutv3do0K-146" value="PK" style="shape=partialRectangle;connectable=0;fillColor=none;top=0;left=0;bottom=0;right=0;fontStyle=1;overflow=hidden;whiteSpace=wrap;html=1;fontSize=16;" vertex="1" parent="WTXbPh3IcF4Nutv3do0K-145">
          <mxGeometry width="30" height="30" as="geometry">
            <mxRectangle width="30" height="30" as="alternateBounds" />
          </mxGeometry>
        </mxCell>
        <mxCell id="WTXbPh3IcF4Nutv3do0K-147" value="ID" style="shape=partialRectangle;connectable=0;fillColor=none;top=0;left=0;bottom=0;right=0;align=left;spacingLeft=6;fontStyle=5;overflow=hidden;whiteSpace=wrap;html=1;fontSize=16;" vertex="1" parent="WTXbPh3IcF4Nutv3do0K-145">
          <mxGeometry x="30" width="150" height="30" as="geometry">
            <mxRectangle width="150" height="30" as="alternateBounds" />
          </mxGeometry>
        </mxCell>
        <mxCell id="WTXbPh3IcF4Nutv3do0K-148" value="" style="shape=tableRow;horizontal=0;startSize=0;swimlaneHead=0;swimlaneBody=0;fillColor=none;collapsible=0;dropTarget=0;points=[[0,0.5],[1,0.5]];portConstraint=eastwest;top=0;left=0;right=0;bottom=0;fontSize=16;" vertex="1" parent="WTXbPh3IcF4Nutv3do0K-144">
          <mxGeometry y="60" width="180" height="30" as="geometry" />
        </mxCell>
        <mxCell id="WTXbPh3IcF4Nutv3do0K-149" value="" style="shape=partialRectangle;connectable=0;fillColor=none;top=0;left=0;bottom=0;right=0;editable=1;overflow=hidden;whiteSpace=wrap;html=1;fontSize=16;" vertex="1" parent="WTXbPh3IcF4Nutv3do0K-148">
          <mxGeometry width="30" height="30" as="geometry">
            <mxRectangle width="30" height="30" as="alternateBounds" />
          </mxGeometry>
        </mxCell>
        <mxCell id="WTXbPh3IcF4Nutv3do0K-150" value="name str" style="shape=partialRectangle;connectable=0;fillColor=none;top=0;left=0;bottom=0;right=0;align=left;spacingLeft=6;overflow=hidden;whiteSpace=wrap;html=1;fontSize=16;" vertex="1" parent="WTXbPh3IcF4Nutv3do0K-148">
          <mxGeometry x="30" width="150" height="30" as="geometry">
            <mxRectangle width="150" height="30" as="alternateBounds" />
          </mxGeometry>
        </mxCell>
        <mxCell id="WTXbPh3IcF4Nutv3do0K-151" value="" style="shape=tableRow;horizontal=0;startSize=0;swimlaneHead=0;swimlaneBody=0;fillColor=none;collapsible=0;dropTarget=0;points=[[0,0.5],[1,0.5]];portConstraint=eastwest;top=0;left=0;right=0;bottom=0;fontSize=16;" vertex="1" parent="WTXbPh3IcF4Nutv3do0K-144">
          <mxGeometry y="90" width="180" height="30" as="geometry" />
        </mxCell>
        <mxCell id="WTXbPh3IcF4Nutv3do0K-152" value="" style="shape=partialRectangle;connectable=0;fillColor=none;top=0;left=0;bottom=0;right=0;editable=1;overflow=hidden;whiteSpace=wrap;html=1;fontSize=16;" vertex="1" parent="WTXbPh3IcF4Nutv3do0K-151">
          <mxGeometry width="30" height="30" as="geometry">
            <mxRectangle width="30" height="30" as="alternateBounds" />
          </mxGeometry>
        </mxCell>
        <mxCell id="WTXbPh3IcF4Nutv3do0K-153" value="path str" style="shape=partialRectangle;connectable=0;fillColor=none;top=0;left=0;bottom=0;right=0;align=left;spacingLeft=6;overflow=hidden;whiteSpace=wrap;html=1;fontSize=16;" vertex="1" parent="WTXbPh3IcF4Nutv3do0K-151">
          <mxGeometry x="30" width="150" height="30" as="geometry">
            <mxRectangle width="150" height="30" as="alternateBounds" />
          </mxGeometry>
        </mxCell>
        <mxCell id="WTXbPh3IcF4Nutv3do0K-154" value="" style="shape=tableRow;horizontal=0;startSize=0;swimlaneHead=0;swimlaneBody=0;fillColor=none;collapsible=0;dropTarget=0;points=[[0,0.5],[1,0.5]];portConstraint=eastwest;top=0;left=0;right=0;bottom=0;fontSize=16;" vertex="1" parent="WTXbPh3IcF4Nutv3do0K-144">
          <mxGeometry y="120" width="180" height="30" as="geometry" />
        </mxCell>
        <mxCell id="WTXbPh3IcF4Nutv3do0K-155" value="" style="shape=partialRectangle;connectable=0;fillColor=none;top=0;left=0;bottom=0;right=0;editable=1;overflow=hidden;whiteSpace=wrap;html=1;fontSize=16;" vertex="1" parent="WTXbPh3IcF4Nutv3do0K-154">
          <mxGeometry width="30" height="30" as="geometry">
            <mxRectangle width="30" height="30" as="alternateBounds" />
          </mxGeometry>
        </mxCell>
        <mxCell id="WTXbPh3IcF4Nutv3do0K-156" value="Row 3" style="shape=partialRectangle;connectable=0;fillColor=none;top=0;left=0;bottom=0;right=0;align=left;spacingLeft=6;overflow=hidden;whiteSpace=wrap;html=1;fontSize=16;" vertex="1" parent="WTXbPh3IcF4Nutv3do0K-154">
          <mxGeometry x="30" width="150" height="30" as="geometry">
            <mxRectangle width="150" height="30" as="alternateBounds" />
          </mxGeometry>
        </mxCell>
        <mxCell id="WTXbPh3IcF4Nutv3do0K-201" value="" style="edgeStyle=entityRelationEdgeStyle;fontSize=12;html=1;endArrow=ERoneToMany;rounded=0;startSize=8;endSize=8;curved=1;exitX=1;exitY=0.5;exitDx=0;exitDy=0;entryX=0;entryY=0.5;entryDx=0;entryDy=0;" edge="1" parent="1" source="WTXbPh3IcF4Nutv3do0K-145" target="WTXbPh3IcF4Nutv3do0K-294">
          <mxGeometry width="100" height="100" relative="1" as="geometry">
            <mxPoint x="-771" y="582" as="sourcePoint" />
            <mxPoint x="-835" y="442" as="targetPoint" />
            <Array as="points">
              <mxPoint x="-474" y="420" />
            </Array>
          </mxGeometry>
        </mxCell>
        <mxCell id="WTXbPh3IcF4Nutv3do0K-202" value="Schedule" style="shape=table;startSize=30;container=1;collapsible=1;childLayout=tableLayout;fixedRows=1;rowLines=0;fontStyle=1;align=center;resizeLast=1;html=1;fontSize=16;" vertex="1" parent="1">
          <mxGeometry x="-753" y="-146" width="259.7592592592591" height="314.39928187754316" as="geometry" />
        </mxCell>
        <mxCell id="WTXbPh3IcF4Nutv3do0K-203" value="" style="shape=tableRow;horizontal=0;startSize=0;swimlaneHead=0;swimlaneBody=0;fillColor=none;collapsible=0;dropTarget=0;points=[[0,0.5],[1,0.5]];portConstraint=eastwest;top=0;left=0;right=0;bottom=1;fontSize=16;" vertex="1" parent="WTXbPh3IcF4Nutv3do0K-202">
          <mxGeometry y="30" width="259.7592592592591" height="30" as="geometry" />
        </mxCell>
        <mxCell id="WTXbPh3IcF4Nutv3do0K-204" value="PK" style="shape=partialRectangle;connectable=0;fillColor=none;top=0;left=0;bottom=0;right=0;fontStyle=1;overflow=hidden;whiteSpace=wrap;html=1;fontSize=16;" vertex="1" parent="WTXbPh3IcF4Nutv3do0K-203">
          <mxGeometry width="30" height="30" as="geometry">
            <mxRectangle width="30" height="30" as="alternateBounds" />
          </mxGeometry>
        </mxCell>
        <mxCell id="WTXbPh3IcF4Nutv3do0K-205" value="id Int" style="shape=partialRectangle;connectable=0;fillColor=none;top=0;left=0;bottom=0;right=0;align=left;spacingLeft=6;fontStyle=5;overflow=hidden;whiteSpace=wrap;html=1;fontSize=16;" vertex="1" parent="WTXbPh3IcF4Nutv3do0K-203">
          <mxGeometry x="30" width="229.75925925925912" height="30" as="geometry">
            <mxRectangle width="229.75925925925912" height="30" as="alternateBounds" />
          </mxGeometry>
        </mxCell>
        <mxCell id="WTXbPh3IcF4Nutv3do0K-206" value="" style="shape=tableRow;horizontal=0;startSize=0;swimlaneHead=0;swimlaneBody=0;fillColor=none;collapsible=0;dropTarget=0;points=[[0,0.5],[1,0.5]];portConstraint=eastwest;top=0;left=0;right=0;bottom=0;fontSize=16;" vertex="1" parent="WTXbPh3IcF4Nutv3do0K-202">
          <mxGeometry y="60" width="259.7592592592591" height="44" as="geometry" />
        </mxCell>
        <mxCell id="WTXbPh3IcF4Nutv3do0K-207" value="" style="shape=partialRectangle;connectable=0;fillColor=none;top=0;left=0;bottom=0;right=0;editable=1;overflow=hidden;whiteSpace=wrap;html=1;fontSize=16;" vertex="1" parent="WTXbPh3IcF4Nutv3do0K-206">
          <mxGeometry width="30" height="44" as="geometry">
            <mxRectangle width="30" height="44" as="alternateBounds" />
          </mxGeometry>
        </mxCell>
        <mxCell id="WTXbPh3IcF4Nutv3do0K-208" value="timeStart DataTime" style="shape=partialRectangle;connectable=0;fillColor=none;top=0;left=0;bottom=0;right=0;align=left;spacingLeft=6;overflow=hidden;whiteSpace=wrap;html=1;fontSize=16;" vertex="1" parent="WTXbPh3IcF4Nutv3do0K-206">
          <mxGeometry x="30" width="229.75925925925912" height="44" as="geometry">
            <mxRectangle width="229.75925925925912" height="44" as="alternateBounds" />
          </mxGeometry>
        </mxCell>
        <mxCell id="WTXbPh3IcF4Nutv3do0K-218" value="" style="shape=tableRow;horizontal=0;startSize=0;swimlaneHead=0;swimlaneBody=0;fillColor=none;collapsible=0;dropTarget=0;points=[[0,0.5],[1,0.5]];portConstraint=eastwest;top=0;left=0;right=0;bottom=0;fontSize=16;" vertex="1" parent="WTXbPh3IcF4Nutv3do0K-202">
          <mxGeometry y="104" width="259.7592592592591" height="40" as="geometry" />
        </mxCell>
        <mxCell id="WTXbPh3IcF4Nutv3do0K-219" value="" style="shape=partialRectangle;connectable=0;fillColor=none;top=0;left=0;bottom=0;right=0;editable=1;overflow=hidden;whiteSpace=wrap;html=1;fontSize=16;" vertex="1" parent="WTXbPh3IcF4Nutv3do0K-218">
          <mxGeometry width="30" height="40" as="geometry">
            <mxRectangle width="30" height="40" as="alternateBounds" />
          </mxGeometry>
        </mxCell>
        <mxCell id="WTXbPh3IcF4Nutv3do0K-220" value="timeEnd DataTime" style="shape=partialRectangle;connectable=0;fillColor=none;top=0;left=0;bottom=0;right=0;align=left;spacingLeft=6;overflow=hidden;whiteSpace=wrap;html=1;fontSize=16;" vertex="1" parent="WTXbPh3IcF4Nutv3do0K-218">
          <mxGeometry x="30" width="229.75925925925912" height="40" as="geometry">
            <mxRectangle width="229.75925925925912" height="40" as="alternateBounds" />
          </mxGeometry>
        </mxCell>
        <mxCell id="WTXbPh3IcF4Nutv3do0K-224" value="" style="shape=tableRow;horizontal=0;startSize=0;swimlaneHead=0;swimlaneBody=0;fillColor=none;collapsible=0;dropTarget=0;points=[[0,0.5],[1,0.5]];portConstraint=eastwest;top=0;left=0;right=0;bottom=0;fontSize=16;" vertex="1" parent="WTXbPh3IcF4Nutv3do0K-202">
          <mxGeometry y="144" width="259.7592592592591" height="30" as="geometry" />
        </mxCell>
        <mxCell id="WTXbPh3IcF4Nutv3do0K-225" value="" style="shape=partialRectangle;connectable=0;fillColor=none;top=0;left=0;bottom=0;right=0;editable=1;overflow=hidden;whiteSpace=wrap;html=1;fontSize=16;" vertex="1" parent="WTXbPh3IcF4Nutv3do0K-224">
          <mxGeometry width="30" height="30" as="geometry">
            <mxRectangle width="30" height="30" as="alternateBounds" />
          </mxGeometry>
        </mxCell>
        <mxCell id="WTXbPh3IcF4Nutv3do0K-226" value="program str" style="shape=partialRectangle;connectable=0;fillColor=none;top=0;left=0;bottom=0;right=0;align=left;spacingLeft=6;overflow=hidden;whiteSpace=wrap;html=1;fontSize=16;" vertex="1" parent="WTXbPh3IcF4Nutv3do0K-224">
          <mxGeometry x="30" width="229.75925925925912" height="30" as="geometry">
            <mxRectangle width="229.75925925925912" height="30" as="alternateBounds" />
          </mxGeometry>
        </mxCell>
        <mxCell id="WTXbPh3IcF4Nutv3do0K-227" value="" style="shape=tableRow;horizontal=0;startSize=0;swimlaneHead=0;swimlaneBody=0;fillColor=none;collapsible=0;dropTarget=0;points=[[0,0.5],[1,0.5]];portConstraint=eastwest;top=0;left=0;right=0;bottom=0;fontSize=16;" vertex="1" parent="WTXbPh3IcF4Nutv3do0K-202">
          <mxGeometry y="174" width="259.7592592592591" height="67" as="geometry" />
        </mxCell>
        <mxCell id="WTXbPh3IcF4Nutv3do0K-228" value="" style="shape=partialRectangle;connectable=0;fillColor=none;top=0;left=0;bottom=0;right=0;editable=1;overflow=hidden;whiteSpace=wrap;html=1;fontSize=16;" vertex="1" parent="WTXbPh3IcF4Nutv3do0K-227">
          <mxGeometry width="30" height="67" as="geometry">
            <mxRectangle width="30" height="67" as="alternateBounds" />
          </mxGeometry>
        </mxCell>
        <mxCell id="WTXbPh3IcF4Nutv3do0K-229" value="programId int" style="shape=partialRectangle;connectable=0;fillColor=none;top=0;left=0;bottom=0;right=0;align=left;spacingLeft=6;overflow=hidden;whiteSpace=wrap;html=1;fontSize=16;" vertex="1" parent="WTXbPh3IcF4Nutv3do0K-227">
          <mxGeometry x="30" width="229.75925925925912" height="67" as="geometry">
            <mxRectangle width="229.75925925925912" height="67" as="alternateBounds" />
          </mxGeometry>
        </mxCell>
        <mxCell id="WTXbPh3IcF4Nutv3do0K-230" value="" style="edgeStyle=entityRelationEdgeStyle;fontSize=12;html=1;endArrow=ERoneToMany;rounded=0;startSize=8;endSize=8;curved=1;exitX=1;exitY=0.5;exitDx=0;exitDy=0;" edge="1" parent="1" source="WTXbPh3IcF4Nutv3do0K-32" target="WTXbPh3IcF4Nutv3do0K-206">
          <mxGeometry width="100" height="100" relative="1" as="geometry">
            <mxPoint x="-334.9307407407409" y="278.38" as="sourcePoint" />
            <mxPoint x="-456.9953148148149" y="-75.99999999999989" as="targetPoint" />
          </mxGeometry>
        </mxCell>
        <mxCell id="WTXbPh3IcF4Nutv3do0K-232" value="advertisement" style="shape=table;startSize=30;container=1;collapsible=1;childLayout=tableLayout;fixedRows=1;rowLines=0;fontStyle=1;align=center;resizeLast=1;html=1;fontSize=16;" vertex="1" parent="1">
          <mxGeometry x="-1229" y="-155" width="235" height="210" as="geometry" />
        </mxCell>
        <mxCell id="WTXbPh3IcF4Nutv3do0K-233" value="" style="shape=tableRow;horizontal=0;startSize=0;swimlaneHead=0;swimlaneBody=0;fillColor=none;collapsible=0;dropTarget=0;points=[[0,0.5],[1,0.5]];portConstraint=eastwest;top=0;left=0;right=0;bottom=1;fontSize=16;" vertex="1" parent="WTXbPh3IcF4Nutv3do0K-232">
          <mxGeometry y="30" width="235" height="30" as="geometry" />
        </mxCell>
        <mxCell id="WTXbPh3IcF4Nutv3do0K-234" value="PK" style="shape=partialRectangle;connectable=0;fillColor=none;top=0;left=0;bottom=0;right=0;fontStyle=1;overflow=hidden;whiteSpace=wrap;html=1;fontSize=16;" vertex="1" parent="WTXbPh3IcF4Nutv3do0K-233">
          <mxGeometry width="30" height="30" as="geometry">
            <mxRectangle width="30" height="30" as="alternateBounds" />
          </mxGeometry>
        </mxCell>
        <mxCell id="WTXbPh3IcF4Nutv3do0K-235" value="id Int" style="shape=partialRectangle;connectable=0;fillColor=none;top=0;left=0;bottom=0;right=0;align=left;spacingLeft=6;fontStyle=5;overflow=hidden;whiteSpace=wrap;html=1;fontSize=16;" vertex="1" parent="WTXbPh3IcF4Nutv3do0K-233">
          <mxGeometry x="30" width="205" height="30" as="geometry">
            <mxRectangle width="205" height="30" as="alternateBounds" />
          </mxGeometry>
        </mxCell>
        <mxCell id="WTXbPh3IcF4Nutv3do0K-236" value="" style="shape=tableRow;horizontal=0;startSize=0;swimlaneHead=0;swimlaneBody=0;fillColor=none;collapsible=0;dropTarget=0;points=[[0,0.5],[1,0.5]];portConstraint=eastwest;top=0;left=0;right=0;bottom=0;fontSize=16;" vertex="1" parent="WTXbPh3IcF4Nutv3do0K-232">
          <mxGeometry y="60" width="235" height="30" as="geometry" />
        </mxCell>
        <mxCell id="WTXbPh3IcF4Nutv3do0K-237" value="" style="shape=partialRectangle;connectable=0;fillColor=none;top=0;left=0;bottom=0;right=0;editable=1;overflow=hidden;whiteSpace=wrap;html=1;fontSize=16;" vertex="1" parent="WTXbPh3IcF4Nutv3do0K-236">
          <mxGeometry width="30" height="30" as="geometry">
            <mxRectangle width="30" height="30" as="alternateBounds" />
          </mxGeometry>
        </mxCell>
        <mxCell id="WTXbPh3IcF4Nutv3do0K-238" value="time" style="shape=partialRectangle;connectable=0;fillColor=none;top=0;left=0;bottom=0;right=0;align=left;spacingLeft=6;overflow=hidden;whiteSpace=wrap;html=1;fontSize=16;" vertex="1" parent="WTXbPh3IcF4Nutv3do0K-236">
          <mxGeometry x="30" width="205" height="30" as="geometry">
            <mxRectangle width="205" height="30" as="alternateBounds" />
          </mxGeometry>
        </mxCell>
        <mxCell id="WTXbPh3IcF4Nutv3do0K-239" value="" style="shape=tableRow;horizontal=0;startSize=0;swimlaneHead=0;swimlaneBody=0;fillColor=none;collapsible=0;dropTarget=0;points=[[0,0.5],[1,0.5]];portConstraint=eastwest;top=0;left=0;right=0;bottom=0;fontSize=16;" vertex="1" parent="WTXbPh3IcF4Nutv3do0K-232">
          <mxGeometry y="90" width="235" height="30" as="geometry" />
        </mxCell>
        <mxCell id="WTXbPh3IcF4Nutv3do0K-240" value="" style="shape=partialRectangle;connectable=0;fillColor=none;top=0;left=0;bottom=0;right=0;editable=1;overflow=hidden;whiteSpace=wrap;html=1;fontSize=16;" vertex="1" parent="WTXbPh3IcF4Nutv3do0K-239">
          <mxGeometry width="30" height="30" as="geometry">
            <mxRectangle width="30" height="30" as="alternateBounds" />
          </mxGeometry>
        </mxCell>
        <mxCell id="WTXbPh3IcF4Nutv3do0K-241" value="soundId" style="shape=partialRectangle;connectable=0;fillColor=none;top=0;left=0;bottom=0;right=0;align=left;spacingLeft=6;overflow=hidden;whiteSpace=wrap;html=1;fontSize=16;" vertex="1" parent="WTXbPh3IcF4Nutv3do0K-239">
          <mxGeometry x="30" width="205" height="30" as="geometry">
            <mxRectangle width="205" height="30" as="alternateBounds" />
          </mxGeometry>
        </mxCell>
        <mxCell id="WTXbPh3IcF4Nutv3do0K-242" value="" style="shape=tableRow;horizontal=0;startSize=0;swimlaneHead=0;swimlaneBody=0;fillColor=none;collapsible=0;dropTarget=0;points=[[0,0.5],[1,0.5]];portConstraint=eastwest;top=0;left=0;right=0;bottom=0;fontSize=16;" vertex="1" parent="WTXbPh3IcF4Nutv3do0K-232">
          <mxGeometry y="120" width="235" height="30" as="geometry" />
        </mxCell>
        <mxCell id="WTXbPh3IcF4Nutv3do0K-243" value="" style="shape=partialRectangle;connectable=0;fillColor=none;top=0;left=0;bottom=0;right=0;editable=1;overflow=hidden;whiteSpace=wrap;html=1;fontSize=16;" vertex="1" parent="WTXbPh3IcF4Nutv3do0K-242">
          <mxGeometry width="30" height="30" as="geometry">
            <mxRectangle width="30" height="30" as="alternateBounds" />
          </mxGeometry>
        </mxCell>
        <mxCell id="WTXbPh3IcF4Nutv3do0K-244" value="Row 3" style="shape=partialRectangle;connectable=0;fillColor=none;top=0;left=0;bottom=0;right=0;align=left;spacingLeft=6;overflow=hidden;whiteSpace=wrap;html=1;fontSize=16;" vertex="1" parent="WTXbPh3IcF4Nutv3do0K-242">
          <mxGeometry x="30" width="205" height="30" as="geometry">
            <mxRectangle width="205" height="30" as="alternateBounds" />
          </mxGeometry>
        </mxCell>
        <mxCell id="WTXbPh3IcF4Nutv3do0K-247" value="" style="edgeStyle=entityRelationEdgeStyle;fontSize=12;html=1;endArrow=ERzeroToOne;startArrow=ERmandOne;rounded=0;startSize=8;endSize=8;curved=1;exitX=1;exitY=0.5;exitDx=0;exitDy=0;entryX=1;entryY=0.5;entryDx=0;entryDy=0;" edge="1" parent="1" source="WTXbPh3IcF4Nutv3do0K-233" target="WTXbPh3IcF4Nutv3do0K-145">
          <mxGeometry width="100" height="100" relative="1" as="geometry">
            <mxPoint x="-911" y="-4" as="sourcePoint" />
            <mxPoint x="-860" y="229" as="targetPoint" />
          </mxGeometry>
        </mxCell>
        <mxCell id="WTXbPh3IcF4Nutv3do0K-261" value="" style="edgeStyle=entityRelationEdgeStyle;fontSize=12;html=1;endArrow=ERoneToMany;rounded=0;startSize=8;endSize=8;curved=1;exitX=1;exitY=0.5;exitDx=0;exitDy=0;entryX=0;entryY=0.5;entryDx=0;entryDy=0;" edge="1" parent="1" source="WTXbPh3IcF4Nutv3do0K-233" target="WTXbPh3IcF4Nutv3do0K-203">
          <mxGeometry width="100" height="100" relative="1" as="geometry">
            <mxPoint x="-844" y="174" as="sourcePoint" />
            <mxPoint x="-744" y="74" as="targetPoint" />
          </mxGeometry>
        </mxCell>
        <mxCell id="WTXbPh3IcF4Nutv3do0K-264" value="" style="shape=stencil(lVjbUlsxDPyavGpsyxf5mbb/wQyhZEoJA/T2993TjA+xkrNM30KixZa0Wkne6c3rw+3zfpfC69vL8dv+1+Hu7WGnn3YpHZ4e9i+HN3za6eed3twfX/ZfX44/nu5Ofz/fLpbLp+/Hn8t/+H3CJelxAaXw5/SFmsTw75svJ/vHw9OZfZSks30WTdv2QUKY7JNJysxebbZXCXHbPo1fh31s0vq2fZE63z8myczfKGEGNKnk/tGkzA6rNBIfhMPchSSUbfscR7iH/Rrh6/YId/f25P+XMtLzbs/iUxG+5u4fjdh3KbO/aVzwqn2rF4ST2rbtrYnO/jZJxL4X0QtCsAD1Ln1mKFKeSIZjuKwBsJDEqDdPasWdGCCKzUlDFRcSVcti85VyGTzfSoPVCVAizVs1yXNcS5NMCrlG7zSoZSRzYKrNiajIfSUAULXM1IjSSeZKHoldAY3moQYPMHhFrtQu5A6pbOQEAGz2oUNfCF0BcE6D8Y1kGgXqfAAdC1OA5hWmm3QGyJ5LqKlGogQixPmEs5q6njmoTPFHVAZoXmY6ryCwL1cfJsYNkMkVBBKRSCIW9rkTlLZOAPqsAiCTkpIrVbKja6fNrZgPq9mHRT1nDvrM6Fp10P8cQGq0VtHsr6TEh3rRoG1tSVsVFC7CGokwAdBcQegIwxagOhUoXGdQL7NW9iqdhdV8CwK9M5PvcnECosTCqj7TS6NkJ4TBnDOA8RLtxfvQWcUV36lRopVXXO0+D7QFXQWQK+WV/WfkC4TeOYnO45UVicQHNH43z1gYqbwOqP5KrVDlU7SDWZdAx0pOyGFsFCuADxs5+664kIU1ahTQ7ANyH9mUiyVn9iHz/gCZcSKQlbbRpj5xiBvt7N0P3hj6lAAM3cCNlY3mAczps9xj9i6k7+IElwcsV6ziMB75Rl1on0ZY25yHZR1jM1we28j7KEBlJqcrAGP1gJi4hSZKJeTDMO8KKKpEAoh9cHMFVNpFY/bKh6WM6VJcJ+cVUKlqAODyoJGu0bhSdGtZodoKgLoTKl3k4sX4sxQQi5KKzfSGFn4ACK5EuQgsm6FTjTDUdmP183sZAEbo3UdTXu0j1TEbY8KZfWL1Ji14ezpH+wER92eKkf3jBCLKVgH1jwewZ/vS/75WfWyPD+9PY/eHx8fTy9r57/4pDV+dnuH0818=);lineShape=1;fontSize=16;" vertex="1" parent="1">
          <mxGeometry x="-959.7386260404746" y="-267.2165631766536" width="53.95679800437815" height="72.65736355716383" as="geometry" />
        </mxCell>
        <mxCell id="WTXbPh3IcF4Nutv3do0K-265" value="" style="shape=stencil(jVZdU9tADPw1ft25k0738Uzp/8gMofE0JEwIBf49MsZpdNSibxdba0WrXZ0GvnnabR63A4Wn8+n4e/sy3p13A/8YiMbDbnsaz3oa+Hbgm/vjafvrdHw+3M2/HzdT5HR6OP6ZvvA641oFxwlF4W1+kgJK+Xjycwbsx8MVoEaUZgA1gNo6oKQ+Q22gsA7IDLGAJqi0DpAAIQtoSGkdwBkl9IDi/CViJFt0y5C8DogEqhYQwA4ggcSSpDzzerxybksuEdmpICAnE58jghMvC4FLvGi8I4uYENnqiNymaYZqe8AF0WuaqsZm4IQcnRIYweqIBeIJT5BtlzVncWoogpZt0dktutLS1AutGcGRRRWwZSlnJM+eDLY1lIzmAEoBdfbUDOKwVJA6ezKaZ09ZlHYBVFerKfZFxxBctVLpeW3FrToKSlcEuX7L/Uyqye20usX6X7Xi+Sf0HOW0ZPy3G8D2+5IWe6zFly/xjttiRbM6IoI4CfR1B1COXUBbCLm0wNWdDu3amQ3ZYTSpOW3LIpJjNfkiCV9z07SoXfxnT9aGBdmRqoQ68erk2o1s1/l6wTTLZ4yuRPUK6+4QbTo7HdNLkjpNiGvkK9teJiq7spvWEQv4Zh35j/1FD3+3n/txv5+Xp+v3/bakj+ZNi2/fAQ==);lineShape=1;fontSize=16;" vertex="1" parent="1">
          <mxGeometry x="-927.6675383455276" y="-172.497930849559" width="6.740455926255241" height="8.794245309227499" as="geometry" />
        </mxCell>
        <mxCell id="WTXbPh3IcF4Nutv3do0K-266" value="" style="shape=stencil(tVvJch03DPwaXVkkuJ+d5D9cZTlWxbFcsrP9fZpROBo23/SrHHKTZWC4AY1Gk3qI7759ev/18cH8t+8vz788/vH04funh/jDg9nTl0+PL0/f8dND/PEhvvv4/PL488vzb18+vP776/thOX769fn38YU/X/1ycsEPL/N/vf4muZz/+cVPr/afn76c7c1ZJPvor+1Tdz2Qve/CvrpU2D4J++RqJvvQhL253Mk+hWv7iPmzfRPrjcX1dT7ZJTH/GHm9xcVybW/d1XU/qyvivPDfdZ1/c8mEfXbdFvvuTM0H+7nah+BCvHYI3aV1QiE6EycWCp9wyK6IIwtp7vjh0JyvwsFcWnPAvGtik4J3ZV20RdfFLnVOMhxLFjNqLq4rwBeKmFCdGzLtY3BNbFHhpIw6K8vM8cNeR2l2dZ1/bK6I72dnlMTBeTH/IwcP++iiQhU+4IQZKpSYu3HYN4kq0bV1vdm7LO1LXe2jXG+c0XLYA1Xk9zOBUHVN7A/ms+5P8c6kPZ1vsTvr7ev8S5qwdLH//yLCYV/k/NOMrsO+zQi/iLewfr/6eYIX8Z/W/ayoksIe0UL2QCCB0gAUW6tACzKgAVl1PbGWZEQAM9Oa8q26qKbU5goPhz5Lw+1K4F1cR+hBLhqlgxbdzQU1AqjGemw9TmC97VB4lzoyWzmg2Bk7VAF0wFmK7J5lfQXQds8OqnQAOT1ta5lodjsXwkzdk0MVxWZQKFp0lQcHMOQR6ty3K9JI+TAcxJRyuTGCYhXAq7rtkjq4krkkw0GtofRZ8U4Hp5hyjVzERywJ0Kh1Mt1TeCuu2fyWDyZHaGBaW4pKHoJgpvDGmMqhzgw+oYapNfRZOA4HQL3Y1jHjDfkUVGITqZgDW4uAyn5874Teqrr1DVtRHrqaUnZtbaKqzbbhtkPhbb1TsEYwU8UFA7vjQH0IYEZk3JgScQbdeWHRlUYIEwuvHAgEcpfEHwfHtKrK5nTkF42QZbeJ/OprtALaFNHuW30AMyxqSn7rl9sM+KsEom1NRTKB1phMogCobR1EYcUlNNGqPUIGB1pDkKGBDG5rfUDbrXapGU8pHqX+NrZ2Zuij41HovS0apV5RPqR8XUNjdH0igZDyYT04KxIEUIHCGq2jD1JdW2ZaDMolHdAHrLhkQfJoZHBccQkssItF58YpGrpm6plbPRDTJmIJCckjVFlQUufmMOgKlA7CdhIk1KKH5uTZwat2qc3vHQ5pym63HfLE6pOokhUNtRmbJwfZgQZXycHkOcCBt9VmdF05UD7AQTahgflSCPem5As7JMFm4EB8CQ7y4MKE3sPBT/XqyoFwCQ4KZnBwJJXAQQqMez54rR3ECYwnh6I6lMjMGA5da555O4eogm/DJThUFd77CAh4PaVY2SHrKfnNQQrDxmAcDjJxedI0AsbUCdS2Rctz2Kj0kBX0CGbsINXzPePMeXVwt3JaMYGBGpkdVMMBh7ilqIL7gXyBHeSUjOnPyDiVQAi1+P86bKr+SFEVfH1G//kcVI2L26JNSsRgqYUOLkoNGsSZgy/OgL/tEFmlRxVVJDEXbgdQp1V7nLfLLVAHdQ7FtruMKsUcUDgGgSa3tVTup0GwVHsMVklQabqg1MBcw+4zY7r9iLP/veLeFHxgxiZStHkOPmtS30f/QME3KrdSTjbFGP2DnFJh5QQ5qFQ4dFkUGlELtGj8CCpj183rJtAmf695pWsBMFlVdtEeUx+XtOQ15FjqRctdTYDWoLusXQjJQabomzJ5OCBaxcH1TewHjkS16MZ1Gl2RHKGzIDX6LrWGzr0oOju5rZ11jaJF5uD9FNJPAtOdIYjpAkhUfPetBNUo2UnfEqJmyX9wEJSj45pGjVAneTlJiUplRriGdQQAiRzBuPMDLihaiaSm9xgjzZV0ssk/PWi9qHBFwSTVZXRL3ED0qGXpwNsKXFACU63bGrKUQ0fk0BqK3NayPbPA2SvRGIWacrTrhxbl6JEOhy4VKaBKMna481SH9KKRg3fudZglenlfBngnIvqGJLcdwnab1SUXQBEs+6qVKpC2exr9gmVv8gdAq0tCbFNihyCmZNv9AIJJaetDpqMRynw1c9vB8wV118+OwCJJRkDKqV0CseVg0lcWYT8HTROHPEQOXl+aB9awgG1qlzpLWE2TjcadIsDbFMpsF01RSvd5Vv1TNVFCS5oE8ihXXYtLk90d9lXC6lZ7UD/VK43tKeCAWfVogV8pgQGofizwpVfRtwLbHTCaoSjAyDOgjkthcb6eU2C0c/L7VAeLvjzdKNV4taPt1/XmLImn5xu7fG/+hBFvLfjVftKrqSoJm+enielg91fxQM2Cvu7e2xev3zJObffUgan9t+3VXdZqGBeaISKK/YyMD9FrDYafto5Kpa5KJv8+tdn6FWCgV4lpyntXeEh9v0n1vHITMiJQ9aebVqivSsN+JZFlHxU2JjuKlBqhbqqwl1uEGXNN0hDt+blwlSXDjO/Qi1S0xss7wghtv9GCJHuDnTvp1iBuGGT6tdT2psykTDOEUZLLJMTFzjnj5TVB2i55/VQLLgl1J3tJwOsNe7Gf2fM9h5cl461CvNmrhjen+crkbT9Vyo/3FpRhkkrnzDU7SJ0C9pXt5UPkzM/37V5TRpzPJhO/sifOarLEjO+v8RPlneiYP73Ulm0r7EkITbIkDYZhZC/nk7jLTfLGFfaZv591vP23P1+5a48f3v5W5uPT58+vf2pz/n/+2xr86vXvcuKPfwM=);lineShape=1;fontSize=16;" vertex="1" parent="1">
          <mxGeometry x="-1007.5935476983555" y="-306.2013611284117" width="179.24107173219065" height="179.85133373502714" as="geometry" />
        </mxCell>
        <mxCell id="WTXbPh3IcF4Nutv3do0K-267" value="TechnicalSoftware" style="shape=table;startSize=30;container=1;collapsible=1;childLayout=tableLayout;fixedRows=1;rowLines=0;fontStyle=1;align=center;resizeLast=1;html=1;fontSize=16;" vertex="1" parent="1">
          <mxGeometry x="-330.97999999999996" y="-88" width="203.51882352941195" height="178.32764705882363" as="geometry" />
        </mxCell>
        <mxCell id="WTXbPh3IcF4Nutv3do0K-268" value="" style="shape=tableRow;horizontal=0;startSize=0;swimlaneHead=0;swimlaneBody=0;fillColor=none;collapsible=0;dropTarget=0;points=[[0,0.5],[1,0.5]];portConstraint=eastwest;top=0;left=0;right=0;bottom=1;fontSize=16;" vertex="1" parent="WTXbPh3IcF4Nutv3do0K-267">
          <mxGeometry y="30" width="203.51882352941195" height="30" as="geometry" />
        </mxCell>
        <mxCell id="WTXbPh3IcF4Nutv3do0K-269" value="PK" style="shape=partialRectangle;connectable=0;fillColor=none;top=0;left=0;bottom=0;right=0;fontStyle=1;overflow=hidden;whiteSpace=wrap;html=1;fontSize=16;" vertex="1" parent="WTXbPh3IcF4Nutv3do0K-268">
          <mxGeometry width="30" height="30" as="geometry">
            <mxRectangle width="30" height="30" as="alternateBounds" />
          </mxGeometry>
        </mxCell>
        <mxCell id="WTXbPh3IcF4Nutv3do0K-270" value="Id int" style="shape=partialRectangle;connectable=0;fillColor=none;top=0;left=0;bottom=0;right=0;align=left;spacingLeft=6;fontStyle=5;overflow=hidden;whiteSpace=wrap;html=1;fontSize=16;" vertex="1" parent="WTXbPh3IcF4Nutv3do0K-268">
          <mxGeometry x="30" width="173.51882352941195" height="30" as="geometry">
            <mxRectangle width="173.51882352941195" height="30" as="alternateBounds" />
          </mxGeometry>
        </mxCell>
        <mxCell id="WTXbPh3IcF4Nutv3do0K-271" value="" style="shape=tableRow;horizontal=0;startSize=0;swimlaneHead=0;swimlaneBody=0;fillColor=none;collapsible=0;dropTarget=0;points=[[0,0.5],[1,0.5]];portConstraint=eastwest;top=0;left=0;right=0;bottom=0;fontSize=16;" vertex="1" parent="WTXbPh3IcF4Nutv3do0K-267">
          <mxGeometry y="60" width="203.51882352941195" height="26" as="geometry" />
        </mxCell>
        <mxCell id="WTXbPh3IcF4Nutv3do0K-272" value="" style="shape=partialRectangle;connectable=0;fillColor=none;top=0;left=0;bottom=0;right=0;editable=1;overflow=hidden;whiteSpace=wrap;html=1;fontSize=16;" vertex="1" parent="WTXbPh3IcF4Nutv3do0K-271">
          <mxGeometry width="30" height="26" as="geometry">
            <mxRectangle width="30" height="26" as="alternateBounds" />
          </mxGeometry>
        </mxCell>
        <mxCell id="WTXbPh3IcF4Nutv3do0K-273" value="programId" style="shape=partialRectangle;connectable=0;fillColor=none;top=0;left=0;bottom=0;right=0;align=left;spacingLeft=6;overflow=hidden;whiteSpace=wrap;html=1;fontSize=16;" vertex="1" parent="WTXbPh3IcF4Nutv3do0K-271">
          <mxGeometry x="30" width="173.51882352941195" height="26" as="geometry">
            <mxRectangle width="173.51882352941195" height="26" as="alternateBounds" />
          </mxGeometry>
        </mxCell>
        <mxCell id="WTXbPh3IcF4Nutv3do0K-274" value="" style="shape=tableRow;horizontal=0;startSize=0;swimlaneHead=0;swimlaneBody=0;fillColor=none;collapsible=0;dropTarget=0;points=[[0,0.5],[1,0.5]];portConstraint=eastwest;top=0;left=0;right=0;bottom=0;fontSize=16;" vertex="1" parent="WTXbPh3IcF4Nutv3do0K-267">
          <mxGeometry y="86" width="203.51882352941195" height="30" as="geometry" />
        </mxCell>
        <mxCell id="WTXbPh3IcF4Nutv3do0K-275" value="" style="shape=partialRectangle;connectable=0;fillColor=none;top=0;left=0;bottom=0;right=0;editable=1;overflow=hidden;whiteSpace=wrap;html=1;fontSize=16;" vertex="1" parent="WTXbPh3IcF4Nutv3do0K-274">
          <mxGeometry width="30" height="30" as="geometry">
            <mxRectangle width="30" height="30" as="alternateBounds" />
          </mxGeometry>
        </mxCell>
        <mxCell id="WTXbPh3IcF4Nutv3do0K-276" value="Employees [int]" style="shape=partialRectangle;connectable=0;fillColor=none;top=0;left=0;bottom=0;right=0;align=left;spacingLeft=6;overflow=hidden;whiteSpace=wrap;html=1;fontSize=16;" vertex="1" parent="WTXbPh3IcF4Nutv3do0K-274">
          <mxGeometry x="30" width="173.51882352941195" height="30" as="geometry">
            <mxRectangle width="173.51882352941195" height="30" as="alternateBounds" />
          </mxGeometry>
        </mxCell>
        <mxCell id="WTXbPh3IcF4Nutv3do0K-277" value="" style="shape=tableRow;horizontal=0;startSize=0;swimlaneHead=0;swimlaneBody=0;fillColor=none;collapsible=0;dropTarget=0;points=[[0,0.5],[1,0.5]];portConstraint=eastwest;top=0;left=0;right=0;bottom=0;fontSize=16;" vertex="1" parent="WTXbPh3IcF4Nutv3do0K-267">
          <mxGeometry y="116" width="203.51882352941195" height="62" as="geometry" />
        </mxCell>
        <mxCell id="WTXbPh3IcF4Nutv3do0K-278" value="" style="shape=partialRectangle;connectable=0;fillColor=none;top=0;left=0;bottom=0;right=0;editable=1;overflow=hidden;whiteSpace=wrap;html=1;fontSize=16;" vertex="1" parent="WTXbPh3IcF4Nutv3do0K-277">
          <mxGeometry width="30" height="62" as="geometry">
            <mxRectangle width="30" height="62" as="alternateBounds" />
          </mxGeometry>
        </mxCell>
        <mxCell id="WTXbPh3IcF4Nutv3do0K-279" value="Row 3" style="shape=partialRectangle;connectable=0;fillColor=none;top=0;left=0;bottom=0;right=0;align=left;spacingLeft=6;overflow=hidden;whiteSpace=wrap;html=1;fontSize=16;" vertex="1" parent="WTXbPh3IcF4Nutv3do0K-277">
          <mxGeometry x="30" width="173.51882352941195" height="62" as="geometry">
            <mxRectangle width="173.51882352941195" height="62" as="alternateBounds" />
          </mxGeometry>
        </mxCell>
        <mxCell id="WTXbPh3IcF4Nutv3do0K-297" value="" style="edgeStyle=entityRelationEdgeStyle;fontSize=12;html=1;endArrow=ERoneToMany;startArrow=ERzeroToOne;rounded=0;startSize=8;endSize=8;curved=1;exitX=1;exitY=0.5;exitDx=0;exitDy=0;entryX=1;entryY=0.5;entryDx=0;entryDy=0;" edge="1" parent="1" source="WTXbPh3IcF4Nutv3do0K-130" target="WTXbPh3IcF4Nutv3do0K-268">
          <mxGeometry width="100" height="100" relative="1" as="geometry">
            <mxPoint x="-73" y="214.5" as="sourcePoint" />
            <mxPoint x="-73" y="-13" as="targetPoint" />
          </mxGeometry>
        </mxCell>
        <mxCell id="WTXbPh3IcF4Nutv3do0K-299" value="" style="edgeStyle=entityRelationEdgeStyle;fontSize=12;html=1;endArrow=ERoneToMany;startArrow=ERmandOne;rounded=0;startSize=8;endSize=8;curved=1;exitX=0;exitY=0.5;exitDx=0;exitDy=0;entryX=1;entryY=0.5;entryDx=0;entryDy=0;" edge="1" parent="1" source="WTXbPh3IcF4Nutv3do0K-15" target="WTXbPh3IcF4Nutv3do0K-11">
          <mxGeometry width="100" height="100" relative="1" as="geometry">
            <mxPoint x="-4.54" y="369.5" as="sourcePoint" />
            <mxPoint x="-145.99833333333302" y="277.9999999999998" as="targetPoint" />
            <Array as="points">
              <mxPoint x="-104.54" y="355.5" />
            </Array>
          </mxGeometry>
        </mxCell>
        <mxCell id="WTXbPh3IcF4Nutv3do0K-300" value="" style="edgeStyle=entityRelationEdgeStyle;fontSize=12;html=1;endArrow=ERoneToMany;startArrow=ERzeroToOne;rounded=0;startSize=8;endSize=8;curved=1;exitX=0;exitY=0.5;exitDx=0;exitDy=0;" edge="1" parent="1" source="WTXbPh3IcF4Nutv3do0K-130" target="WTXbPh3IcF4Nutv3do0K-120">
          <mxGeometry width="100" height="100" relative="1" as="geometry">
            <mxPoint x="-286.76" y="414.9999999999998" as="sourcePoint" />
            <mxPoint x="-424.00074074074087" y="463.5" as="targetPoint" />
          </mxGeometry>
        </mxCell>
        <mxCell id="WTXbPh3IcF4Nutv3do0K-317" value="" style="edgeStyle=entityRelationEdgeStyle;fontSize=12;html=1;endArrow=ERmandOne;startArrow=ERmandOne;rounded=0;startSize=8;endSize=8;curved=1;exitX=1;exitY=0.5;exitDx=0;exitDy=0;entryX=0;entryY=0.5;entryDx=0;entryDy=0;" edge="1" parent="1" source="WTXbPh3IcF4Nutv3do0K-314" target="WTXbPh3IcF4Nutv3do0K-271">
          <mxGeometry width="100" height="100" relative="1" as="geometry">
            <mxPoint x="-488" y="486" as="sourcePoint" />
            <mxPoint x="-404" y="173" as="targetPoint" />
          </mxGeometry>
        </mxCell>
      </root>
    </mxGraphModel>
  </diagram>
</mxfile>
